<mxfile host="app.diagrams.net">
  <diagram name="Virtual Account Pipeline" id="pipelineDiagram">
    <mxGraphModel dx="1296" dy="741" grid="1" gridSize="10" guides="1" tooltips="1" connect="1" arrows="1" fold="1" page="1" pageScale="1" pageWidth="827" pageHeight="1169">
      <root>
        <mxCell id="0" />
        <mxCell id="1" parent="0" />
        <!-- UPI / EMPS -->
        <mxCell id="2" value="UPI / EMPS&#10;(GPA, Fetch, Query)" style="shape=rectangle;whiteSpace=wrap;html=1;fillColor=#D0E3FA;" vertex="1" parent="1">
          <mxGeometry x="40" y="80" width="140" height="60" as="geometry" />
        </mxCell>
        <!-- Virtual APAC Table -->
        <mxCell id="3" value="Virtual APAC Table" style="shape=rectangle;whiteSpace=wrap;html=1;fillColor=#FCE5CD;" vertex="1" parent="1">
          <mxGeometry x="240" y="80" width="140" height="60" as="geometry" />
        </mxCell>
        <!-- ROS Simulation -->
        <mxCell id="4" value="ROS Simulation" style="shape=rectangle;whiteSpace=wrap;html=1;fillColor=#D9EAD3;" vertex="1" parent="1">
          <mxGeometry x="40" y="200" width="140" height="60" as="geometry" />
        </mxCell>
        <!-- Kafka -->
        <mxCell id="5" value="Kafka" style="shape=rectangle;whiteSpace=wrap;html=1;fillColor=#FFF2CC;" vertex="1" parent="1">
          <mxGeometry x="440" y="80" width="100" height="60" as="geometry" />
        </mxCell>
        <!-- Power BI -->
        <mxCell id="6" value="Power BI Dashboard" style="shape=rectangle;whiteSpace=wrap;html=1;fillColor=#F4CCCC;" vertex="1" parent="1">
          <mxGeometry x="640" y="20" width="160" height="60" as="geometry" />
        </mxCell>
        <!-- Join Logic -->
        <mxCell id="7" value="Join Logic&#10;(V Acc Merge)" style="shape=rectangle;whiteSpace=wrap;html=1;fillColor=#EAD1DC;" vertex="1" parent="1">
          <mxGeometry x="640" y="100" width="160" height="60" as="geometry" />
        </mxCell>
        <!-- Virtual Account Master -->
        <mxCell id="8" value="Virtual Account Master" style="shape=rectangle;whiteSpace=wrap;html=1;fillColor=#CFE2F3;" vertex="1" parent="1">
          <mxGeometry x="640" y="200" width="160" height="60" as="geometry" />
        </mxCell>

        <!-- Connectors -->
        <mxCell id="9" style="endArrow=block;html=1;" edge="1" parent="1" source="2" target="3"><mxGeometry relative="1" as="geometry" /></mxCell>
        <mxCell id="10" style="endArrow=block;html=1;" edge="1" parent="1" source="3" target="5"><mxGeometry relative="1" as="geometry" /></mxCell>
        <mxCell id="11" style="endArrow=block;html=1;" edge="1" parent="1" source="4" target="3"><mxGeometry relative="1" as="geometry" /></mxCell>
        <mxCell id="12" style="endArrow=block;html=1;" edge="1" parent="1" source="5" target="7"><mxGeometry relative="1" as="geometry" /></mxCell>
        <mxCell id="13" style="endArrow=block;html=1;" edge="1" parent="1" source="7" target="8"><mxGeometry relative="1" as="geometry" /></mxCell>
        <mxCell id="14" style="endArrow=block;html=1;" edge="1" parent="1" source="6" target="7"><mxGeometry relative="1" as="geometry" /></mxCell>
      </root>
    </mxGraphModel>
  </diagram>
</mxfile>